<svg xmlns="http://www.w3.org/2000/svg" viewBox="0 0 600 80" fill="none" aria-label="Neurovium mark">
  
  <g stroke="currentColor" stroke-width="1" stroke-linecap="round" stroke-linejoin="round" fill="none">

    
    
    <path d="M 8 40 C 60 40, 110 38, 160 40 S 220 44, 260 42"></path>

    
    <path d="M 60 40 C 80 32, 95 22, 110 16"></path>
    <path d="M 110 16 C 122 13, 132 11, 142 10"></path>
    <path d="M 110 16 C 118 22, 124 26, 132 28"></path>
    <path d="M 90 38 C 105 30, 118 24, 134 22"></path>
    <path d="M 134 22 C 144 21, 152 21, 162 22"></path>

    
    <path d="M 60 40 C 80 48, 95 58, 110 64"></path>
    <path d="M 110 64 C 122 67, 132 69, 142 70"></path>
    <path d="M 110 64 C 118 58, 124 54, 132 52"></path>
    <path d="M 90 42 C 105 50, 118 56, 134 58"></path>
    <path d="M 134 58 C 144 59, 152 59, 162 58"></path>

    
    <path d="M 30 40 C 38 36, 44 32, 52 30"></path>
    <path d="M 30 40 C 38 44, 44 48, 52 50"></path>
    <path d="M 20 40 C 24 38, 28 36, 32 35"></path>
    <path d="M 20 40 C 24 42, 28 44, 32 45"></path>

    
    <path d="M 145 11 C 152 9, 158 8, 164 8"></path>
    <path d="M 145 69 C 152 71, 158 72, 164 72"></path>
    <path d="M 132 28 C 138 30, 144 31, 150 31"></path>
    <path d="M 132 52 C 138 50, 144 49, 150 49"></path>

    
    <path d="M 180 40 C 200 30, 218 26, 236 28"></path>
    <path d="M 180 40 C 200 50, 218 54, 236 52"></path>
    <path d="M 220 36 C 232 36, 242 36, 252 37"></path>
    <path d="M 220 44 C 232 44, 242 44, 252 43"></path>

    
    <circle cx="142" cy="10" r="1.2" fill="currentColor"></circle>
    <circle cx="142" cy="70" r="1.2" fill="currentColor"></circle>
    <circle cx="164" cy="8" r="1" fill="currentColor"></circle>
    <circle cx="164" cy="72" r="1" fill="currentColor"></circle>
    <circle cx="32" cy="35" r="0.9" fill="currentColor"></circle>
    <circle cx="32" cy="45" r="0.9" fill="currentColor"></circle>
    <circle cx="52" cy="30" r="0.9" fill="currentColor"></circle>
    <circle cx="52" cy="50" r="0.9" fill="currentColor"></circle>
    <circle cx="150" cy="31" r="0.8" fill="currentColor"></circle>
    <circle cx="150" cy="49" r="0.8" fill="currentColor"></circle>

    
    
    <line x1="260" y1="40" x2="340" y2="40"></line>

    
    <circle cx="278" cy="40" r="3.5" fill="currentColor"></circle>
    <circle cx="300" cy="40" r="5" fill="currentColor"></circle>
    <circle cx="322" cy="40" r="3.5" fill="currentColor"></circle>

    
    <circle cx="300" cy="40" r="9" stroke="currentColor" stroke-width="0.6" opacity="0.5"></circle>

    
    <circle cx="290" cy="28" r="1.4" fill="currentColor" opacity="0.7"></circle>
    <circle cx="310" cy="52" r="1.4" fill="currentColor" opacity="0.7"></circle>

    
    
    <line x1="340" y1="40" x2="408" y2="40"></line>

    
    <polyline points="360,40 360,24 392,24 392,12 432,12"></polyline>
    <polyline points="392,24 408,24"></polyline>
    <polyline points="408,12 408,8 424,8"></polyline>

    
    <polyline points="360,40 360,56 392,56 392,68 432,68"></polyline>
    <polyline points="392,56 408,56"></polyline>
    <polyline points="408,68 408,72 424,72"></polyline>

    
    <polyline points="408,40 440,40 440,28 480,28"></polyline>
    <polyline points="408,40 440,40 440,52 480,52"></polyline>
    <line x1="480" y1="28" x2="528" y2="28"></line>
    <line x1="480" y1="52" x2="528" y2="52"></line>
    <line x1="440" y1="40" x2="528" y2="40"></line>
    <line x1="528" y1="28" x2="528" y2="52"></line>

    
    <polyline points="432,12 432,4 492,4"></polyline>
    <polyline points="432,68 432,76 492,76"></polyline>
    <line x1="492" y1="4" x2="556" y2="4"></line>
    <line x1="492" y1="76" x2="556" y2="76"></line>

    
    <rect x="554" y="2" width="4" height="4" fill="currentColor"></rect>
    <rect x="554" y="74" width="4" height="4" fill="currentColor"></rect>
    <circle cx="528" cy="40" r="1.6" fill="currentColor"></circle>
    <circle cx="528" cy="28" r="1.2" fill="currentColor"></circle>
    <circle cx="528" cy="52" r="1.2" fill="currentColor"></circle>
    <circle cx="424" cy="8" r="1" fill="currentColor"></circle>
    <circle cx="424" cy="72" r="1" fill="currentColor"></circle>
    <circle cx="408" cy="40" r="1.4" fill="currentColor"></circle>

    
    <g opacity="0.45">
      <polyline points="370,40 370,32 384,32"></polyline>
      <polyline points="370,40 370,48 384,48"></polyline>
      <polyline points="450,40 450,20 470,20"></polyline>
      <polyline points="450,40 450,60 470,60"></polyline>
    </g>

  </g>
</svg>